<svg xmlns="http://www.w3.org/2000/svg" viewBox="0 0 320 50" width="320" height="50">
  <!-- James the Butler — Inline: Compact icon + single-line wordmark -->
  <g transform="translate(5, 5)">
    <path d="M5 8 Q5 2 10 2 L30 2 Q35 2 35 8 L35 24 Q35 30 30 30 L18 30 L12 37 L13 30 Q5 30 5 24 Z" fill="#1a1a2e"/>
    <rect x="10" y="12" width="2" height="10" rx="0.5" fill="#d4a574"/>
    <rect x="15" y="12" width="10" height="1.5" rx="0.75" fill="#d4a574" opacity="0.6"/>
    <rect x="15" y="16" width="7" height="1.5" rx="0.75" fill="#d4a574" opacity="0.4"/>
    <rect x="15" y="20" width="13" height="1.5" rx="0.75" fill="#d4a574" opacity="0.3"/>
    <circle cx="24" cy="26" r="1" fill="#d4a574" opacity="0.5"/>
    <circle cx="28" cy="26" r="1" fill="#d4a574" opacity="0.35"/>
    <circle cx="32" cy="26" r="1" fill="#d4a574" opacity="0.2"/>
    <polygon points="35,2 38,0 38,4" fill="#d4a574"/>
  </g>
  <text x="55" y="30" font-family="Georgia,'Times New Roman',serif" font-size="22" font-weight="bold" fill="#1a1a2e">James</text>
  <text x="140" y="30" font-family="Georgia,'Times New Roman',serif" font-size="22" fill="#1a1a2e" opacity="0.5">the Butler</text>
</svg>
