<svg xmlns="http://www.w3.org/2000/svg" viewBox="0 0 160 160" width="160" height="160">
  <!-- James the Butler — Stacked: Icon on top, wordmark below -->
  <!-- Icon (centered, 80x80) -->
  <g transform="translate(40, 8)">
    <path d="M14 16 Q14 8 24 8 L56 8 Q66 8 66 18 L66 44 Q66 54 56 54 L36 54 L26 66 L27 54 Q14 54 14 44 Z" fill="#1a1a2e"/>
    <rect x="24" y="24" width="3" height="16" rx="1" fill="#d4a574"/>
    <rect x="31" y="24" width="20" height="2.5" rx="1" fill="#d4a574" opacity="0.6"/>
    <rect x="31" y="30" width="14" height="2.5" rx="1" fill="#d4a574" opacity="0.4"/>
    <rect x="31" y="36" width="24" height="2.5" rx="1" fill="#d4a574" opacity="0.3"/>
    <circle cx="46" cy="48" r="2" fill="#d4a574" opacity="0.5"/>
    <circle cx="52" cy="48" r="2" fill="#d4a574" opacity="0.35"/>
    <circle cx="58" cy="48" r="2" fill="#d4a574" opacity="0.2"/>
    <polygon points="66,8 72,4 72,12" fill="#d4a574"/>
    <polygon points="66,8 60,4 60,12" fill="none" stroke="#d4a574" stroke-width="1"/>
  </g>
  <!-- Wordmark below -->
  <text x="80" y="108" font-family="Georgia,'Times New Roman',serif" font-size="24" font-weight="bold" fill="#1a1a2e" text-anchor="middle">James</text>
  <text x="80" y="130" font-family="Georgia,'Times New Roman',serif" font-size="12" fill="#1a1a2e" opacity="0.5" text-anchor="middle" letter-spacing="3">THE BUTLER</text>
</svg>
