<svg xmlns="http://www.w3.org/2000/svg" viewBox="0 0 360 80" width="360" height="80">
  <!-- James the Butler — Horizontal Light: for dark backgrounds -->
  <!-- Icon (scaled to fit 60x60 within 80px height) -->
  <g transform="translate(10, 10)">
    <path d="M8 12 Q8 4 16 4 L44 4 Q52 4 52 12 L52 36 Q52 44 44 44 L26 44 L18 54 L19 44 Q8 44 8 36 Z" fill="#ffffff"/>
    <rect x="16" y="20" width="2.5" height="12" rx="1" fill="#d4a574"/>
    <rect x="22" y="20" width="15" height="2" rx="1" fill="#d4a574" opacity="0.6"/>
    <rect x="22" y="25" width="11" height="2" rx="1" fill="#d4a574" opacity="0.4"/>
    <rect x="22" y="30" width="19" height="2" rx="1" fill="#d4a574" opacity="0.3"/>
    <circle cx="36" cy="39" r="1.5" fill="#d4a574" opacity="0.5"/>
    <circle cx="41" cy="39" r="1.5" fill="#d4a574" opacity="0.35"/>
    <circle cx="46" cy="39" r="1.5" fill="#d4a574" opacity="0.2"/>
    <polygon points="52,4 56,1 56,7" fill="#d4a574"/>
    <polygon points="52,4 48,1 48,7" fill="none" stroke="#d4a574" stroke-width="0.8"/>
  </g>
  <!-- Wordmark -->
  <text x="85" y="38" font-family="Georgia,'Times New Roman',serif" font-size="28" font-weight="bold" fill="#ffffff" dominant-baseline="middle">James</text>
  <text x="85" y="60" font-family="Georgia,'Times New Roman',serif" font-size="16" fill="#ffffff" opacity="0.5" letter-spacing="3">THE BUTLER</text>
</svg>
