<svg xmlns="http://www.w3.org/2000/svg" viewBox="0 0 400 100" width="400" height="100">
  <!-- James the Butler — The Whisper with wordmark -->
  <!-- Icon -->
  <path d="M10 25 Q10 17 18 17 L58 17 Q66 17 66 25 L66 55 Q66 63 58 63 L34 63 L24 75 L25 63 Q10 63 10 55 Z" fill="#1a1a2e"/>
  <rect x="18" y="33" width="3" height="14" rx="1" fill="#d4a574"/>
  <rect x="25" y="33" width="18" height="2.5" rx="1" fill="#d4a574" opacity="0.6"/>
  <rect x="25" y="39" width="13" height="2.5" rx="1" fill="#d4a574" opacity="0.4"/>
  <rect x="25" y="45" width="22" height="2.5" rx="1" fill="#d4a574" opacity="0.3"/>
  <circle cx="44" cy="57" r="1.5" fill="#d4a574" opacity="0.5"/>
  <circle cx="50" cy="57" r="1.5" fill="#d4a574" opacity="0.35"/>
  <circle cx="56" cy="57" r="1.5" fill="#d4a574" opacity="0.2"/>
  <polygon points="66,17 71,13.5 71,20.5" fill="#d4a574"/>
  <!-- Wordmark -->
  <text x="90" y="58" font-family="Georgia,'Times New Roman',serif" font-size="36" font-weight="bold" fill="#1a1a2e">James</text>
  <text x="208" y="58" font-family="Georgia,'Times New Roman',serif" font-size="36" fill="#1a1a2e" opacity="0.5">the Butler</text>
</svg>
